<?xml version="1.0" encoding="UTF-8"?>
<svg id="Layer_1" xmlns="http://www.w3.org/2000/svg" version="1.1" viewBox="0 0 77 48">
  <!-- Generator: Adobe Illustrator 30.4.0, SVG Export Plug-In . SVG Version: 2.1.4 Build 226)  -->
  <defs>
    <style>
      .st0 {
        fill: #fff;
      }
    </style>
  </defs>
  <path class="st0" d="M44.16.47C42.17.14,39.26,0,37.28,0c-1.85,0-3.71.16-5.53.47-4.9.86-5.79,2.65-5.79,5.95v3.87h12v1.71h-15.9c-4.45,0-8.07,5.32-8.1,11.91v.09c0,1.15.11,2.3.34,3.43,1,4.96,4.1,8.57,7.77,8.57h2.18v-5.79c0-3.35,2.23-6.42,5.89-7.08l1.06-.13h12.98c.55,0,1.09-.07,1.61-.21,2.47-.66,4.19-2.91,4.17-5.46V6.42c0-3.1-2.64-5.44-5.79-5.95ZM31.41,7.88c-1.21,0-2.19-.97-2.19-2.17s.97-2.19,2.17-2.19,2.19.97,2.19,2.17c0,0,0,0,0,.01,0,1.2-.97,2.17-2.17,2.17h0Z"/>
  <path class="st0" d="M61.44,19.82c-1.15-4.57-4.12-7.82-7.6-7.82h-1.9v5.08c0,4.24-2.79,7.31-6.19,7.84-.34.05-.69.08-1.04.08h-12.98c-.55,0-1.1.07-1.63.21-2.39.63-4.16,2.62-4.16,5.2v10.9c0,3.11,3.12,4.93,6.19,5.82,3.67,1.07,7.66,1.26,12.04,0,2.91-.83,5.77-2.52,5.77-5.82v-3.59h-12v-1.71h15.9c3.15,0,5.89-2.67,7.23-6.57.59-1.75.88-3.58.88-5.43,0-1.41-.17-2.81-.51-4.18ZM44.43,39.86c1.21,0,2.19.97,2.19,2.17,0,1.21-.97,2.19-2.17,2.19-1.21,0-2.19-.97-2.19-2.17,0,0,0,0,0-.01,0-1.2.97-2.17,2.17-2.17h0Z"/>
</svg>